<?xml version="1.0"?><svg viewBox="0 0 906.34 515.54" xmlns="http://www.w3.org/2000/svg" xmlns:xlink="http://www.w3.org/1999/xlink"><style>:root>svg{display:none}:root>svg:target{display:block}</style><svg viewBox="0 0 374.11 474.01" version="1.0" id="Machovka_case" xmlns="http://www.w3.org/2000/svg"><defs><linearGradient id="aa" y2="68.392" gradientUnits="userSpaceOnUse" y1="68.392" gradientTransform="matrix(.55137 0 0 8.3682 -710.83 -286.46)" x2="2003.2" x1="1980.3"><stop stop-color="#847575" offset="0"/><stop stop-color="#847575" stop-opacity="0" offset="1"/></linearGradient><linearGradient id="ab" y2="427.64" gradientUnits="userSpaceOnUse" y1="402.71" gradientTransform="matrix(3.7905 0 0 1.2173 -710.83 -286.46)" x2="316.86" x1="308.98"><stop stop-color="#a79c9c" offset="0"/><stop stop-color="#a79c9c" stop-opacity="0" offset="1"/></linearGradient><linearGradient id="af" y2="556.84" gradientUnits="userSpaceOnUse" y1="550.52" gradientTransform="scale(1.4907 .67083)" x2="345.43" x1="345.96"><stop stop-color="#d9c0c0" offset="0"/><stop stop-color="#d9c0c0" stop-opacity="0" offset="1"/></linearGradient><linearGradient id="ac" y2="467.95" gradientUnits="userSpaceOnUse" y1="453.35" gradientTransform="matrix(3.8953 0 0 1.1845 -710.83 -286.46)" x2="305.35" x1="305.17"><stop stop-color="#a59e9e" offset="0"/><stop stop-color="#a59e9e" stop-opacity="0" offset="1"/></linearGradient><linearGradient id="ad" y2="535.37" gradientUnits="userSpaceOnUse" y1="480.68" gradientTransform="matrix(3.9511 0 0 1.1678 -710.83 -286.46)" x2="302.9" x1="301.18"><stop stop-color="#a59e9e" offset="0"/><stop stop-color="#a59e9e" stop-opacity="0" offset="1"/></linearGradient><linearGradient id="ae" y2="568.97" gradientUnits="userSpaceOnUse" y1="527.51" gradientTransform="matrix(3.8943 0 0 1.1848 -710.83 -286.46)" x2="304.95" x1="303.92"><stop stop-color="#a8a1a1" offset="0"/><stop stop-color="#a8a1a1" stop-opacity="0" offset="1"/></linearGradient><linearGradient id="ag" y2="406.98" gradientUnits="userSpaceOnUse" y1="393.09" gradientTransform="matrix(2.6692 0 0 1.7286 -710.83 -286.46)" x2="414.41" x1="413.92"><stop stop-color="#999191" offset="0"/><stop stop-color="#999191" stop-opacity="0" offset="1"/></linearGradient><radialGradient id="ah" fx="649.82" fy="308.3" gradientUnits="userSpaceOnUse" cy="308.21" cx="649.74" gradientTransform="scale(.77254 1.2944)" r="19.656"><stop stop-color="#afa0a0" offset="0"/><stop stop-color="#afa0a0" stop-opacity="0" offset="1"/></radialGradient></defs><path d="M88.35 204.59h-1 .5z" stroke="#000" stroke-miterlimit="6" stroke-width=".63" fill="#d9c0c0"/><path d="M5.92 9.46c-3.7 29.17-1.91 58.72-4.85 87.93.28 66.99 4.51 133.91 11.11 200.55 3.85 45.11-2.31 91.11 8.79 135.52 10.94 19.42 35.89 13.96 54.29 17.57 51.35 12.41 104.58 14.31 156.76 21.91-3.81-132.59-4.36-265.31 1.64-397.85.9-24.58 1.93-49.15 3.05-73.73-77-.06-153.93 3.89-230.79 8.1z" fill-rule="evenodd" stroke="#000" stroke-width="2.148" fill="#cac3c3"/><path d="m233.03 471.21 15.74-9.31 115.15-109.48 4.14-144.54 2.49-91.6 2.48-84.43L251.21 3l-.37-1.83-12.16-.09h-1.5l-5.8 135.95-2.49 112.35-.83 43.65.83 25.76v23.61l.83 25.76.83 50.81 1.66 41.5.82 10.74z" fill-rule="evenodd" fill-opacity=".994" stroke="#000" stroke-width="2.148" fill="#a8a8a8"/><path d="M371.47 47.38 253.84 25.2l-6.62 425.04 118.46-105.18 5.79-297.68z" stroke="#000" stroke-width="2.148" fill="none"/><path d="M616.49 311.29a7.706 24.911 0 1 1 0-.17" fill-opacity=".006" transform="matrix(2.4611 .04715 -.07259 1.9961 -1135.77 -487.65)" stroke="#000" stroke-miterlimit="6" stroke-width=".63" fill="#9a9591"/><path d="M329.23 146.45c-.04 1.73-.02 3.47-.02 5.2v10.01c-.03 1.64-.03 3.32.14 4.91.53 1.6.28 3.42.27 5.11-.23 1.64-.26 3.18-.77 4.77-.25.88-.04 1.83-.05 2.75l-5.15 2.25c.02-1-.09-1.99-.05-2.97.61-1.6.55-2.99.88-4.54.02-1.63.18-3.37-.13-4.91-.39-1.63-.29-3.39-.28-5.1v-10.02c0-1.73.03-3.45-.02-5.18l5.18-2.28z"/><path d="M324.08 181.09c3.52-2.51 4.44-2.93 4.76.59l-5.15 2.2c-1.06-3.46-1.02-3.99 5.1-5.74l-4.71 2.95zM331.72 191.89c.68 1.39 1.07 2.98 1.27 4.46-.05 1.42.55 2.97 1.38 4.28.29 1.49 1.18 2.37 2.32 3.39.43.39.75 1.1.99 1.6l-4.95 2.6c-.34-.57-.53-1.21-1.03-1.65-1.11-.97-2.09-1.92-2.22-3.27-1.05-1.43-1.55-3.14-1.63-4.73-.44-1.4-.24-3.12-1.31-4.4l5.18-2.28zM341.21 195.67c2.66.13 3.49-.87-3.33 2.22-2.57 1.17 10.53-4.25 8-3.01-1.56.76-3.12 1.53-4.69 2.29l.17-.23c.36-1.68 6.12-5.14 3.78-1.19-12.59 5.2 7.11-2.15-5.32 2.99 1.61-3.19 3.69-3.32 6.59-4.42-14.34 8.53-.62-.44-4.12 2.69l-5.41 1.82c3.99-2.93 12.72-5.96 4.3-2.44 8.23-5.21 5.61-2.5 3.91.36-.09.1-.18.21-.27.32-1.72.99-3.45 1.98-5.17 2.97-5.58 2.96 4.05-4.35 4.68-4.72 1.46-.85-3.01 1.56-4.52 2.34 1.75-1.89 8.83-7.48 6.9-2.65-1.8 1.01-3.86 3.14-6.23 3.25-.57.02-2.18.23-1.7-.02 10.35-5.57 1.42.37-2.27.38l4.7-2.95zM339.14 189.94c-11.42 4.17 1.18-.38 5.58-.34 6.22-1.43-13.24 7.54 2.33-.52 1.56-.81-3.16 1.56-4.76 2.31-.45.21.78-.59 1.12-.92 1.47-1.41 3.8-1.92 5.72-2.84-5.15 2.78-1.7 1.64-6.22 1.69 3.1-2.72 5.94-1.6-3.42 2.48 1.96-2.15 9.07-3-1.77.88-1.67.6 6.19-3.22 4.76-2.26-14.58 9.8 11.37-3.85-6 2.97-1.65.65 6.15-3.27 4.76-2.27-1.55 1.11-3.49 1.74-5.23 2.61-.51.13-.37-.91-.37-.92l5.34-1.95c-.15-.09-.43-.06-.45-.26-12.12 6.11.09-.07.56-.21 1.7-.51-3.1 1.58-4.64 2.39-1.79.94 4.11-1.42 5.32-2.9 1.04-1.27-6.38 2.91-4.69 2.35 16.63-5.47-11.5 4.03 6.99-3.49-8.91 5.02-.85-1.51 3.53-2.33 5.85-.52 2.36 4.13-3.01 4.28 11.69-6.02-1.59 1.18-2.11 1.46-1.55.8 3.08-1.62 4.65-2.41 2.24-1.12-4.78 3.81-7.08 2.78-12.66-.01 9.58-5.17-5.61.37l4.7-2.95zM336.66 183.86c3.14.22 5.58-1.18-2.13 2.27-1.87.84 3.67-1.81 5.46-2.77 1.54-.83-3.15 1.55-4.75 2.3-1.98.94 8.02-3.58 6.09-2.56-1.54.82-3.19 1.48-4.78 2.22 1.18-1.04 14.77-5.53 2.96-.26-1.98.89 7.82-3.73 5.92-2.71-1.38.74-2.87 1.33-4.31 1.99 2.43-2.06 13.3-5.55 2.53-.73-2 .9 7.8-3.9 5.83-2.96-1.3.62-2.72 1.04-4.07 1.56-9.87-.47 9.13-3.24 7.51-2.29-1.98 1.17-8.48 3.86-6.38 2.87 10.58-4.98.88-.47-1.41.5-6.29 1.41 15.05-5.59-2.06.78-1.67.62 3.16-1.56 4.77-2.3 2.2-1.02-4.19 2.38-6.41 3.37 1.59-.75 6.15-3.26 4.77-2.25-8.5 6.27-3.22 1.32-6.47 2.75-.4.18-1.75.37-1.36.16 7.17-3.76 5.51-2.26-.66.41-1.63.71 3.16-1.55 4.76-2.3 1.88-.87-3.72 1.79-5.61 2.66-4.06-.82-9.04 2.02-.59-2.38 10.54-2.32-9.95 5.98 5.44-.77 2.83.39 4.05-.79-3.02 2.36-2.22.99 9-3.71 6.86-2.6-9.52 4.96-2.39 1.09 1.13-.48 2.72.36 3.03-.52-3.43 2.36-2.1.94 8.4-3.71 6.39-2.64-9.74 5.15-1.9.5 1.1-.87 1.61-.73-3.16 1.52-4.75 2.27 1.75-.85 3.5-1.71 5.25-2.57.14 0 .53-.04.41.02-1.59.75-3.18 1.51-4.77 2.27.08-.06.16-.12.23-.17l5.4-1.83c-2.82 1.4-11.23 5.53-1.12.47-2.05.99-7.77 4.02-9.37 3.63l-.35.09c1.55-.8 3.11-1.6 4.66-2.4 1.83-.9-3.58 1.92-5.47 2.73-2.36 1.01-1.22-.12 3.36-2.41.2-.1-5.17 3.94-7.17 2.7 10.47-5.69-1.5 2.29-5.96.13 4.42-2.63 5.67-3.3 10.39-2.91-1.55.78-3.11 1.55-4.64 2.35-1.81.94 3.67-1.79 5.46-2.75 1.54-.83-3.11 1.6-4.68 2.39-2.16 1.08 4.23-2.44 6.64-2.98 1.37-.31-4.79 2.53-3.46 2.12 1.89-.58 3.51-1.68 5.27-2.53-11.5 5.87.55-.56 1.59-1.14 1.53-.83-3.1 1.58-4.66 2.37-2.2 1.1 4.28-2.99 6.83-2.99.14-.01.27-.02.41-.02-1.56.81-3.12 1.63-4.67 2.45-2.17 1.13 8.62-4.58 6.59-3.27-1.61 1.03-11.54 6.59-1.36.8-2.74 1.6-11.92 6.26-1.59 1.17 2.14-1.06-8.8 3.88-6.71 2.73 7.56-4.15 5.59-2.84 3.89-2.01-2.29 1.23-11.9 5.95-1.34.68 2.36-1.18-9.85 4.02-7.53 2.78 1.54-.82 3.11-1.57 4.67-2.36-.08.05-.16.1-.24.16-17.34 8.13 10.56-5.41-6.53 2.9-1.57.77 3.09-1.62 4.65-2.41 1.42-.71-6.41 4.17-8.12 2.8l4.71-2.95zM335.41 175.63c2.24.87 2.7 1.08 5.19 1.08 3.61 3.63-5.14 2.46-7.11 2.27-4.26-.85 2.69-1.9 4.96-1.45-.47.28 2.21-.37 1.72-.12-10.61 5.47-1.39-.89 2.23-.19l-4.96 2.68c6.67-4.46 3.76-.46-3.74.48-5.62-1.51 1.46-5.67 4.75-4 6.33-.95 1.43 5.96-2.52 3.24-2.39.1-3.08-.69-5.22-1.04l4.7-2.95zM354.08 173.28c-.22 3.72-.44 2.63-4.63 4.59l5.35-1.85c-8.12 4.01-6.04 3.19-5.9-.46l5.18-2.28zM335 169.19c2.2.52 3.27 1.71 5.58 1.4.28-.01.55.02.82.03l-4.67 2.92c-.26.01-.52-.02-.78.02-2.27.16-3.42-1.24-5.66-1.42l4.71-2.95z"/><path d="M334.62 171.85c.06.07.19.07.29.11-1.65.76-3.24 1.63-4.94 2.3-2.57 1.01 10.14-4.29 7.65-3.14-10.21 4.69-1.44.92 1.28-.23.82.21 1.66.11 2.49.1l-4.65 2.94c-.84 0-1.67-.01-2.5-.1 1.4-.75 5.67-2.91 4.21-2.25-16.18 7.31 5-3.36-9.02 2.55l5.19-2.28zM338.84 160.95c.57 1.56.27 3.51.42 5.01l-4.94 2.62c-.44-1.59-.15-3.39-.42-5.01l4.94-2.62z"/><path d="M335.03 163.27c.07.62 1.58 1.05 2.11 1.42l-4.71 2.88c-.92-.63-2.19-1.06-2.58-2.02l5.18-2.28zM336.24 155.95c-10.87 6.65 2.82-4.67 3.7 1.71-8.18 4.4-10.07 1.74-1.52-2.12-1.58.77-3.13 1.57-4.73 2.3-1.9.86 5.69-4.31 5.76-2.46.11 3.44-5.81 3.76-8.07 2.75l5-2.54c4.38.37-8.99 6.21 2.84.1.09-.04-.16.09-.24.14-1.7.93-3.4 1.86-5.1 2.8 2.89-1.7 7.72-2.92.68.97-.17-.56-2.13-.79-1.56-1.1 9.59-5.16 2.03-.61-1.46.41l4.7-2.96zM336.66 148.8c1.81.29 2.68 1.44 4.22 2.23-.17 1.73-8.98 5.2-8.41 1.09 2.12-2.1 4.2-3.04 6.87-2.55l-4.71 2.86c1.05-.74 1.8-2.16 3.16-2.22 1.14.8 6.11.56-1.81 3.45-1.48-.69-2.22-1.86-4.03-1.91l4.71-2.95zM338.73 140.93c2.15-.26 2.51 1.15 4.29 1.54 3.1 1.17 9.34-1.76.2 2.5-2.75-.58 7.58-3.14 10.12-2.63.6 1.51-2.98 1.94-4.67 2.58l5.34-1.91c-1.77.79-5.96 4.3-5.61 1.95-8.73.01 9.1-6.62-4.26.32-1.47.76 6.26-3.68 4.43-2.22-3.57 1.78-6.35 3.47-10.29 2.27-1.81-.55-2.13-1.84-4.26-1.45l4.71-2.95z"/><path d="M340.8 134.49c1.05 1.2 2.62 1.93 3.85 2.91 3.52 1.11 8.22-1.29.02 2.39 10.68-4.73 2.56-.59-.93-.56-1.92-.03-3.84-.02-5.76-.02.21-1.11 10.21-4.2.28.43l5.32-1.93c-8.03 4.15-9.25 1.61-.94-1.42 1.93 0 3.85-.02 5.78.02 10.8-.63-12.55 8.12 1.6 1.56-4.19 2.14-6.04 3.65-10.23 2.21-1.15-.93-2.57-1.69-3.7-2.64l4.71-2.95z"/><path d="M342.31 129.57c8.68-4.35 2.38-1.31 3.45.83 2.27-.68 2.85-1.01-3.73 2-2 .91 3.92-2 5.82-3.08 1.49-.86-3.11 1.54-4.68 2.29-1.95.92 8.34-2.51 6.41-1.57-1.66.8-3.33 1.58-5 2.37-1.33.63-2.62-.81-4.02-1.12-5.77-.58 2.75-5.9 4.55-2.24 0 .27-.37.44-.56.66l-4.83 2.88c.08-.48-.18-.68.22-1.33-2.39-1.59 2.92-4.14 5.25-2.93 1.67.46 2.95 1.81 4.76 2.09-17.21 8.38 9.42-7.26-6.61 1.99-1.47.85 3-1.59 4.53-2.34 2.24-1.11-4.21 3.6-6.77 3.26-2.99-3.11 2.88-5.21 5.91-6.72l-4.7 2.96zM341.24 117.47c-.42 4.88-12.45 7.22-2.19 3.68-.6 2.6-.84 2.19-5.88 3.91-1.68.57 6.21-3.19 4.76-2.26-9.51 6.11-2.82.9.98.7l-4.58 2.98c-9.11-2.29 12.17-9.18-1.15-2.01-.4.22 1.24-.98.77-1.03.05-2.81.83-.75 5.38-3.98 7.12-5.04-6.73 5.7-3.27.29l5.18-2.28zM347.84 118.39c6.72 2.55-14.06 9.31-.62 1.21l-4.54 3.16c9.87-6.03 3.46 1.31.45-1.42l4.71-2.95zM334.58 128.4c.31.4.9 1.18.15 1.58-11.28 6.01-.5-3.32-.55 3.07-.63.83-.73 1.85-.97 2.84l-5.35 1.95c.21-.54.51-2.21 1.17-2.55.29-5.9 9.3-7.5.85-3.93l4.7-2.96z"/><path d="m384.5 190.94-1.72 63.94v13.88l-.57 43.12.57 28.25v39.15l1.15 1.49 8.61-1.98-2.87-186.86-5.17-.99z" fill-rule="evenodd" stroke="#000" stroke-width="2.148" fill="url(#aa)" transform="translate(-357.53 -172.57)"/><path d="m562.37 237.04-171.55 2.47-.58-47.58 171.56-6.44.57 51.55z" fill-rule="evenodd" stroke="#000" stroke-width="2.148" fill="url(#ab)" transform="translate(-357.53 -172.57)"/><path d="m390.82 239.02 170.98-2.48 1.15 50.55-170.99.5-1.14-48.57z" fill-rule="evenodd" stroke="#000" stroke-width="2.148" fill="url(#ac)" transform="translate(-357.53 -172.57)"/><path d="m562.37 287.59 1.15 49.56-170.98-3.96-1.15-45.6h170.98z" fill-rule="evenodd" stroke="#000" stroke-width="2.148" fill="url(#ad)" transform="translate(-357.53 -172.57)"/><path d="m392.54 332.69.57 46.59 169.26 3.97.58-47.09-170.41-3.47z" fill-rule="evenodd" stroke="#000" stroke-width="2.148" fill="url(#ae)" transform="translate(-357.53 -172.57)"/><path d="m75.74 221.08 1.15 27.76 127.38 4.46v-29.74l-128.53-2.48zM35.01 205.72l-8.61 2.48-.57-.5 1.14 1.49 40.17 1.49 33.85.99 54.51.99 49.34-.99-169.83-5.95z" stroke="#000" stroke-width="2.148" fill="none"/><path d="M83.2 261.05v6.52l118.2 3.26-.57-5.7-117.63-4.08z" stroke="#000" stroke-width="1.947" fill-rule="evenodd"/><path d="M533.76 365.74a8.937 7.696 0 0 1-17.87.2l8.93-.2z" transform="matrix(2.3066 .12586 -.1457 1.9924 -1016.68 -523.62)" stroke="#000" stroke-miterlimit="6" stroke-width=".63" fill="url(#af)"/><path d="m382.19 394.04 25.78 2.02v14.17l-25.78-.51v-15.68z" fill-rule="evenodd" stroke="#000" stroke-width="2.148" fill="url(#ag)" transform="translate(-357.53 -172.57)"/><path d="M32.76 233.67c-.83-1.93-.55-2.92-1.98-4.27l7.22-3.31c1.04.98 1.6 1.92 1.41 3.41l-6.65 4.17zM49.41 319.28c1.1 1.51 3.72 1.81 4.64 2.67.78.15.28.36.73.91l-7.62 2.73c.05.13 1.04.77.17.39-1.74-.32-3.87-1.9-5.24-3.47l7.32-3.23z"/><path d="M60.54 319.79c.8 3.49 3.45.42 4.24 3.76-.58.76.28.39.43.59-2.26.97-4.53 1.94-6.79 2.91l7.6-2.57c-8.22 3.67-6.55 5.45-8.55 2.11-.56-.23-3.72-1.38-4.25-3.58l7.32-3.22z"/><path d="M506.39 399.66a4.562 7.857 0 1 1 0-.02" transform="matrix(2.3044 .15249 -.05334 .6015 -1043.07 12.07)" stroke="#000" stroke-miterlimit="6" stroke-width=".63" fill="url(#ah)"/><path d="M536.29 449.08a22.683 9.884 0 1 1 0-.03" transform="matrix(2.1976 .47287 -.52333 1.9858 -779.14 -705.22)" stroke="#000" stroke-miterlimit="6" stroke-width=".63" fill="#c8c5c5"/><path d="M172.96 278.07c3.07.04 5.61-.49 7.34 1.25l-7.26 3.2c-1.32-.22-4.64-.46-6.73-.27l6.65-4.18z"/></svg><svg viewBox="0 0 906.34 312.11" id="travel-car" xmlns="http://www.w3.org/2000/svg"><defs><linearGradient id="bb" y2="425.13" gradientUnits="userSpaceOnUse" x2="445.84" y1="411.57" x1="445.84"><stop stop-color="#666" offset="0"/><stop stop-color="#8a0" offset="1"/></linearGradient><filter id="ba" height="2.282" width="1.018" color-interpolation-filters="sRGB" y="-.641" x="-.009"><feGaussianBlur stdDeviation="3.07"/></filter></defs><g transform="translate(-69.913 -610.36)"><path d="M142.98 754.9h790.35l-1.016 108.27-163.04 8.637-435.36-3.557-149.22-13.717-15.091 1.017-27.134-4.065.508-96.582z" fill-opacity=".996"/><g fill-opacity=".996"><path d="M321.639 837.017c0 38.69-31.364 70.053-70.054 70.053-38.689 0-70.054-31.363-70.054-70.053s31.364-70.054 70.054-70.054 70.054 31.364 70.054 70.054z" fill="#1a1a1a"/><path d="M306.172 837.016c0 30.158-24.448 54.606-54.606 54.606s-54.606-24.448-54.606-54.606 24.448-54.606 54.606-54.606c30.157 0 54.606 24.447 54.606 54.606z" fill="maroon"/><path d="M251.544 788.842c-26.587 0-48.156 21.57-48.156 48.156 0 26.587 21.57 48.125 48.156 48.125 26.587 0 48.125-21.538 48.125-48.125s-21.538-48.156-48.125-48.156zm7.187 32.719a3.402 3.402 0 0 1 3.407 3.406 3.402 3.402 0 0 1-3.407 3.406c-1.884 0-3.437-1.521-3.437-3.406 0-1.885 1.552-3.406 3.437-3.406zm-15.469.343a3.402 3.402 0 0 1 3.407 3.407c0 1.885-1.522 3.437-3.407 3.437-1.884 0-3.406-1.552-3.406-3.437s1.522-3.407 3.406-3.407zm8.282 7.907c3.968 0 7.187 3.219 7.187 7.187s-3.22 7.188-7.187 7.188-7.188-3.22-7.188-7.188 3.22-7.187 7.188-7.187zm13.469 6.468a3.402 3.402 0 0 1 3.406 3.407 3.402 3.402 0 0 1-3.406 3.406 3.402 3.402 0 0 1-3.407-3.406 3.402 3.402 0 0 1 3.407-3.407zm-25.15 1.44a3.402 3.402 0 0 1 3.406 3.407 3.402 3.402 0 0 1-3.406 3.406 3.402 3.402 0 0 1-3.407-3.406 3.402 3.402 0 0 1 3.407-3.407zm12.219 8.625a3.402 3.402 0 0 1 3.406 3.407 3.402 3.402 0 0 1-3.406 3.406 3.402 3.402 0 0 1-3.407-3.406 3.402 3.402 0 0 1 3.407-3.407z" fill="#999"/></g><path d="M435.91 610.36c-113.77.327-134.31 16.79-207.28 46.75-14.75 6.038-35.954 16.148-46.781 21.406l-1.031-.031-93.156 8.875s-3.1 25.88-3.938 38.812c-.838 12.933-1.094 38.78-1.094 38.78l-11.843 5.75 7.718 37.376-2.593 6.469 10.311 25.125 82.813 15.375c-.005-.399-.032-.788-.032-1.188 0-49.8 36.846-90.188 82.281-90.188s82.25 40.387 82.25 90.188c0 4.291-.283 8.494-.812 12.625l4.625.313s197.92-.063 315.94 3.5c34.26 1.034 75.143.436 115.91-.938-2.326-11.45-2.623-23.659-.469-36.062 8.522-49.066 51.735-82.525 96.5-74.75 44.544 7.737 73.858 53.394 65.75 102.19 22.648-1.58 36.844-2.719 36.844-2.719s-3.056-7.52-2.719-23.312c.337-15.792 11.246-24.773 11.156-39.562-.092-14.808-18.844-16.53-18.844-16.53l1.781-28.75s-4.095-13.19-38.844-21.595c-34.748-8.403-169.62-28.812-169.62-28.812l-22-.812c-21.116-12.33-60.177-35.175-72.812-41.531-47.303-27.412-71.64-44.526-220-46.75z" fill-opacity=".996" fill="#8a0"/><path d="M949.85 591.77c0 3.175-183.36 5.748-409.54 5.748s-409.54-2.573-409.54-5.748c0-3.175 183.36-5.748 409.54-5.748s409.54 2.573 409.54 5.748z" fill-opacity=".996" transform="matrix(1 0 0 1.875 0 -211.69)" filter="url(#ba)"/><path d="M477.19 619.27c-93.882-5.447-177.65 24.358-231.56 58.281l13.375 26.875 433.59 6.5c-36.1-44.16-115.61-85.87-215.4-91.66z" fill-opacity=".996" fill="#4d4d4d"/><path opacity=".4" fill-opacity=".996" fill="#8a0" d="m407.459 621.515 1.824-.248 17.242 83.66-1.825.248z"/><rect opacity=".4" transform="translate(0 308.27)" fill-opacity=".996" rx="7" ry="7" height="28.74" width="40.954" y="424.36" x="156.63" fill="#8a0"/><path d="M952.78 747.58c-8.638.237-23.003 3.586-25.25 9.031-3.03 7.344 16.411 23.256 22.75 23.031 6.134-.217 6.681-9.117 7.875-13.938l1.031-17.03c-.11-.098-.22-.166-.344-.25-.946-.65-3.183-.923-6.062-.845zM86.625 696.3c-.983 8.71-2.373 21.645-2.906 29.875-.612 9.434-.913 25.555-1.031 33.688 13.073-1.227 24.414-3.846 27.625-7.25 6.534-6.927-9.453-38.872-23.688-56.312z" fill-opacity=".996" fill="#ccc"/><path d="M83.594 728.24c-.532 9.577-.796 24.043-.906 31.625 13.073-1.227 24.414-3.846 27.625-7.25 3.282-3.48.88-13.281-4.125-24.375H83.594z" fill-opacity=".996" fill="#a00"/><path opacity=".4" d="M692.67 712.03c21.177 21.781 20.077 40.599 20.077 72.695 0 29.952-6.864 58.194-19.005 83.039M465.12 867.01a193.908 193.908 0 0 1-11.496-14.453c-32.603-45.236-47.474-109.64-28.933-146.4" stroke="#000" stroke-width="3" fill="none"/><path d="M179.2 679.04s32.469-15.746 47.842-22.571c15.807-7.018 82.627-31.614 82.627-31.614l.718 1.437s-58.349 25.984-68.976 30.598c-10.313 4.478-55.324 27.6-55.324 27.6l-6.887-5.45zM740.73 699.26s-45.092-24.248-73.287-39.877c-48.347-26.799-89.776-36.32-89.776-36.32l-3.592 4.67s63.228 29.1 79.394 40.236 54.606 39.877 54.606 39.877 5.46.84 16.166-1.437c11.44-2.433 15.77-7.149 16.489-7.149z" fill="#4d4d4d"/><path d="M102.39 720.42s234.11 3.832 350.81 7.185 349.37 12.933 349.37 12.933M303.18 777.05c85.752 2.684 198.27 5.157 214.85 5.157 22.992 0 259.38 5.748 259.38 5.748M82.627 766.4s99.871 5.03 130.05 7.185" stroke="#000" fill="none"/><path d="M70.413 774.31s29.448 3.84 52.45 5.03c20.821 1.076 61.072 2.155 61.072 2.155" stroke="#666" fill="none"/><path d="M317.58 783.65s117.11 2.958 142.98 3.592c29.458.723 316.14 5.03 316.14 5.03" stroke="#000" fill="none"/><g fill-opacity=".996"><path d="M922.155 834.984c0 38.69-31.364 70.054-70.054 70.054-38.689 0-70.054-31.364-70.054-70.054 0-38.688 31.364-70.053 70.054-70.053s70.054 31.364 70.054 70.053z" fill="#1a1a1a"/><path d="M906.688 834.983c0 30.159-24.448 54.606-54.606 54.606s-54.606-24.447-54.606-54.606c0-30.157 24.448-54.606 54.606-54.606s54.606 24.448 54.606 54.606z" fill="maroon"/><path d="M852.06 786.81c-26.587 0-48.156 21.57-48.156 48.156 0 26.587 21.57 48.125 48.156 48.125 26.587 0 48.125-21.538 48.125-48.125s-21.538-48.156-48.125-48.156zm7.188 32.719a3.402 3.402 0 0 1 3.406 3.406 3.402 3.402 0 0 1-3.407 3.406c-1.884 0-3.437-1.521-3.437-3.406 0-1.885 1.553-3.406 3.438-3.406zm-15.47.343a3.402 3.402 0 0 1 3.407 3.406c0 1.885-1.522 3.438-3.407 3.438-1.884 0-3.406-1.553-3.406-3.438s1.522-3.406 3.406-3.406zm8.282 7.906c3.968 0 7.187 3.22 7.187 7.188s-3.22 7.187-7.187 7.187-7.188-3.219-7.188-7.187 3.22-7.188 7.188-7.188zm13.469 6.47a3.402 3.402 0 0 1 3.406 3.405 3.402 3.402 0 0 1-3.406 3.407 3.402 3.402 0 0 1-3.407-3.407 3.402 3.402 0 0 1 3.407-3.406zm-25.15 1.44a3.402 3.402 0 0 1 3.406 3.405 3.402 3.402 0 0 1-3.406 3.407 3.402 3.402 0 0 1-3.407-3.407 3.402 3.402 0 0 1 3.407-3.406zm12.219 8.624a3.402 3.402 0 0 1 3.406 3.406 3.402 3.402 0 0 1-3.406 3.407 3.402 3.402 0 0 1-3.406-3.407 3.402 3.402 0 0 1 3.406-3.406z" fill="#999"/></g><path d="M462.71 417.54c0 4.167-6.997 7.544-15.627 7.544s-15.627-3.377-15.627-7.544 6.997-7.544 15.627-7.544 15.627 3.378 15.627 7.544z" transform="matrix(.98851 0 0 1.1429 6.91 250.42)" fill="url(#bb)"/><rect fill-opacity=".996" rx="4" ry="4" height="8.263" width="47.061" y="723.38" x="425.17" fill="#668000"/></g></svg><svg viewBox="0 0 540.42 515.54" id="young" xmlns="http://www.w3.org/2000/svg"><path style="stroke:#000;stroke-width:7.5;fill:#447932" d="M460 650.22c0 19.33-24.624 35-55 35s-55-15.67-55-35 24.624-35 55-35 55 15.67 55 35z" transform="translate(-134.791 -173.43)"/><path style="stroke:#000;stroke-width:7.5;fill:#447932" d="M650 456.65c0 103.36-104.57 187.14-233.57 187.14s-233.57-83.787-233.57-187.14c0-103.36 104.57-187.14 233.57-187.14S650 353.297 650 456.65z" transform="translate(-146.22 -165.43)"/><path style="stroke:#000;stroke-width:7.5;fill:#2b1000" d="M179.71 402.43c19.328-5.465 38.481-30.906 57.467-35.067 17.154-3.76 34.171 13.644 51.056 10.913 15.368-2.486 33.66-24.367 48.811-26.029 17.382-1.906 31.59 16.536 48.697 15.678 17.763-.891 41.45-26.822 58.927-26.626 17.253.193 28.301 26.497 45.288 27.706 15.877 1.13 41.756-22.075 57.409-20.094 16.016 2.026 21.802 29.257 37.594 32.138 12.758 2.327 21.398-14.887 34.015-12.025 10.586 2.402 25.169 24.803 35.659 27.569-13.174-60.148 55.11-144.75 16.022-173.97-88.626-66.239-410.13-76.122-506.11 0-43.511 34.51 25.192 120.99 15.163 179.81z" transform="translate(-146.22 -165.43)"/><path style="stroke:#000;stroke-width:7.5;fill:#ffff29" d="M560.63 457.89c0 29.289-16.055 53.033-35.86 53.033s-35.86-23.744-35.86-53.033 16.055-53.033 35.86-53.033 35.86 23.744 35.86 53.033z" transform="translate(-82.138 -104.708) scale(.85574)"/><path style="stroke:#000;stroke-width:5.435;fill:#000" d="M534.64 474.86c0 10.651-4.237 19.286-9.464 19.286s-9.465-8.634-9.465-19.286c0-10.651 4.238-19.286 9.465-19.286s9.464 8.634 9.464 19.286z" transform="matrix(1.1832 0 0 1.0286 -254.29 -189.317)"/><path style="stroke:#000;stroke-width:7.5;fill:#ffff29" d="M560.63 457.89c0 29.289-16.055 53.033-35.86 53.033s-35.86-23.744-35.86-53.033 16.055-53.033 35.86-53.033 35.86 23.744 35.86 53.033z" transform="translate(-269.87 -98.14) scale(.85574)"/><path style="stroke:#000;stroke-width:5.435;fill:#000" d="M534.64 474.86c0 10.651-4.237 19.286-9.464 19.286s-9.465-8.634-9.465-19.286c0-10.651 4.238-19.286 9.465-19.286s9.464 8.634 9.464 19.286z" transform="matrix(1.1832 0 0 1.0286 -442.4 -183.596)"/><path style="stroke:#000;stroke-width:7.5;fill:none" d="M582.59 425.86s-20.905-33.722-38.386-37.376c-32.751-6.846-93.944 35.355-93.944 35.355" transform="translate(-146.22 -165.43)"/><path style="stroke:#000;stroke-width:5;fill:none" d="m574.36 525.86-92.764 32.74M487.9 542.49l8.081 22.476M505.15 536.02l8.081 22.476M523.01 530.74l8.081 22.476M540.43 524.43l8.081 22.476M558.11 518.62l8.081 22.476" transform="translate(-124.791 -174.716)"/><path style="stroke:#000;stroke-width:7.5;fill:#325679" d="M278.57 560.93c0 22.88-15.35 41.429-34.286 41.429-18.935 0-34.286-18.548-34.286-41.429 0-22.88 15.35-41.429 34.286-41.429 18.935 0 34.286 18.548 34.286 41.429z" transform="rotate(-27.155 -160.961 796.753)"/><path style="stroke:#000;stroke-width:5.814;fill:none" d="M217.27 532.84c10.406-5.338 27.079 6.392 37.239 26.199s9.96 40.192-.446 45.53" transform="translate(-146.22 -165.43)"/><path style="stroke:#000;stroke-width:7.5;fill:#325679" d="M278.57 560.93c0 22.88-15.35 41.429-34.286 41.429-18.935 0-34.286-18.548-34.286-41.429 0-22.88 15.35-41.429 34.286-41.429 18.935 0 34.286 18.548 34.286 41.429z" transform="matrix(-1 0 0 1 741.53 -279.08)"/><path style="stroke:#000;stroke-width:5.814;fill:none" d="M646.32 406.97c-11.696 0-21.177 18.046-21.177 40.307s9.481 40.307 21.177 40.307" transform="translate(-146.22 -165.43)"/><path style="stroke:#000;stroke-width:7.5;fill:none" d="M358.93 581.65h115M411.43 468.79c-7.004-2.947-15.5-1.945-21.411 2.934-8.81 7.271-12.96 18.937-13.337 30.11-.32 9.476 3.564 19.36 11.551 24.864 12.696 8.749 31.536 6.398 41.769-5.05M250.26 425.86s20.905-33.722 38.386-37.376c32.751-6.846 93.944 35.355 93.944 35.355" transform="translate(-146.22 -165.43)"/></svg><svg viewBox="0 0 523.76 509.41" id="zamok" xmlns="http://www.w3.org/2000/svg"><defs><linearGradient id="da"><stop style="stop-color:#e7e5e4" offset="0"/><stop style="stop-color:#6e6666" offset="1"/></linearGradient><linearGradient id="dd"><stop style="stop-color:#c83737" offset="0"/><stop style="stop-color:#501616" offset="1"/></linearGradient><linearGradient id="dc"><stop style="stop-color:#917c6f" offset="0"/><stop style="stop-color:#483e37" offset="1"/></linearGradient><linearGradient id="db"><stop style="stop-color:#e3dedb" offset="0"/><stop style="stop-color:#917c6f" offset="1"/></linearGradient><linearGradient id="dA" y2="658" xlink:href="#da" gradientUnits="userSpaceOnUse" x2="467.2" y1="635.48" x1="231.92"/><linearGradient id="dS" y2="725.41" xlink:href="#da" gradientUnits="userSpaceOnUse" x2="376.16" y1="708.64" x1="312.43"/><linearGradient id="dR" y2="707.59" xlink:href="#da" gradientUnits="userSpaceOnUse" x2="400.59" y1="678.84" x1="339.74"/><linearGradient id="dQ" y2="656.8" xlink:href="#da" gradientUnits="userSpaceOnUse" x2="439.41" y1="652.97" x1="376.64"/><linearGradient id="dT" y2="667.13" xlink:href="#da" gradientUnits="userSpaceOnUse" x2="426.47" y1="673.84" x1="361.24"/><linearGradient id="de" y2="402.97" gradientUnits="userSpaceOnUse" x2="340.14" y1="599.18" x1="318.37"><stop style="stop-color:#d3eff6" offset="0"/><stop style="stop-color:#89b8c5" offset="1"/></linearGradient><linearGradient id="dq" y2="436.37" xlink:href="#db" gradientUnits="userSpaceOnUse" x2="362.61" y1="436.37" x1="350.35"/><linearGradient id="dr" y2="424.98" xlink:href="#db" gradientUnits="userSpaceOnUse" x2="412.92" y1="424.98" x1="393.12"/><linearGradient id="dB" y2="558.71" xlink:href="#db" gradientUnits="userSpaceOnUse" x2="301.4" y1="558.71" x1="271.82"/><linearGradient id="dK" y2="558" xlink:href="#db" gradientUnits="userSpaceOnUse" x2="386.45" y1="557.66" x1="356.73"/><linearGradient id="dE" y2="506.84" xlink:href="#db" gradientUnits="userSpaceOnUse" x2="304.61" y1="508.88" x1="278.18"/><linearGradient id="dL" y2="510.67" xlink:href="#db" gradientUnits="userSpaceOnUse" x2="389.35" y1="511.01" x1="356.18"/><linearGradient id="dC" y2="496.34" xlink:href="#dc" gradientUnits="userSpaceOnUse" x2="295.46" y1="497.02" x1="269.37"/><linearGradient id="dp" y2="375.38" xlink:href="#db" gradientUnits="userSpaceOnUse" x2="359.39" y1="375.38" x1="342.86"/><linearGradient id="dt" y2="359.03" xlink:href="#db" gradientUnits="userSpaceOnUse" x2="412.7" y1="357.67" x1="386.27"/><linearGradient id="dN" y2="368.43" xlink:href="#db" gradientUnits="userSpaceOnUse" x2="416.13" y1="368.43" x1="391.43"/><linearGradient id="dF" y2="521.9" xlink:href="#dc" gradientUnits="userSpaceOnUse" x2="305" y1="522.24" x1="271.28"/><linearGradient id="ds" y2="374.02" xlink:href="#dc" gradientUnits="userSpaceOnUse" x2="416.13" y1="374.36" x1="397.19"/><linearGradient id="dM" y2="519.17" xlink:href="#dc" gradientUnits="userSpaceOnUse" x2="389.35" y1="520.36" x1="356.82"/><linearGradient id="dz" y2="479.36" xlink:href="#db" gradientUnits="userSpaceOnUse" x2="498.18" y1="478.6" x1="459.06"/><linearGradient id="du" y2="443.73" xlink:href="#db" gradientUnits="userSpaceOnUse" x2="461.1" y1="443.39" x1="448.87"/><linearGradient id="dv" y2="418.44" xlink:href="#db" gradientUnits="userSpaceOnUse" x2="463.29" y1="418.1" x1="446.32"/><linearGradient id="dw" y2="423.36" xlink:href="#dc" gradientUnits="userSpaceOnUse" x2="463.29" y1="423.36" x1="451.06"/><linearGradient id="dD" y2="483.46" xlink:href="#dd" gradientUnits="userSpaceOnUse" x2="297.83" y1="483.13" x1="269.03"/><linearGradient id="dU" y2="353.33" xlink:href="#dd" gradientUnits="userSpaceOnUse" x2="361.41" y1="353.33" x1="343.15"/><linearGradient id="dO" y2="386.1" xlink:href="#dd" gradientUnits="userSpaceOnUse" x2="368.99" y1="386.1" x1="336.9"/><linearGradient id="dV" y2="326.52" xlink:href="#dd" gradientUnits="userSpaceOnUse" x2="420.02" y1="326.52" x1="383.19"/><linearGradient id="dW" y2="397.04" xlink:href="#dd" gradientUnits="userSpaceOnUse" x2="464.94" y1="397.04" x1="440.61"/><linearGradient id="dx" y2="494.35" xlink:href="#dc" gradientUnits="userSpaceOnUse" x2="508.25" y1="494.35" x1="481.22"/><linearGradient id="dy" y2="522.6" xlink:href="#db" gradientUnits="userSpaceOnUse" x2="495.71" y1="521.24" x1="470.3"/><linearGradient id="dG" y2="555.81" xlink:href="#db" gradientUnits="userSpaceOnUse" x2="374" y1="555.81" x1="332.37"/><linearGradient id="dP" y2="630.83" xlink:href="#da" gradientUnits="userSpaceOnUse" x2="456.18" y1="638.49" x1="194.06"/><linearGradient id="dJ" y2="501.89" xlink:href="#db" gradientUnits="userSpaceOnUse" x2="343.59" y1="500.1" x1="383"/><linearGradient id="dg" y2="593.87" xlink:href="#da" gradientUnits="userSpaceOnUse" x2="695.12" y1="343.81" x1="221.53"/><linearGradient id="df" y2="422.99" xlink:href="#da" gradientUnits="userSpaceOnUse" x2="331.78" y1="270.52" x1="322.66"/></defs><path style="color:#000;fill:url(#de)" d="M202.98 346.4c-14.408 8.621-29.539 3.013-53.221 13.389-32.606 14.287-42.005 74.334-46.081 87.419-12.876 41.337 18.297 172.8 21.685 180.94 3.388 8.132 12.198 24.396 16.942 34.561s23.041 27.107 68.444 30.495c45.403 3.388 283.94-14.909 294.78-8.132 10.843 6.777 48.114 4.744 57.601-2.033 9.487-6.777 29.164-43.827 31.85-51.502 4.744-13.553 27.107-19.652 29.14-67.089 2.033-47.436-10.843-52.858-10.843-58.279 0-5.421 6.777-13.553 10.165-38.627 3.388-25.074-31.85-67.766-38.627-80.642z" transform="translate(-100.58 -275.2)"/><path style="color:#000;fill:url(#df)" d="M196.46 350.84s-17.25 18.209-18.688 25.397c-1.437 7.188 8.625 33.063 14.375 36.418 5.75 3.354 16.053 8.625 23.959 4.792-1.094 1.23 7.532 12.72 14.375 9.583.35 7.617 30.18 4.793 34.98 4.313 15.653 4.313 9.453 21.738 46.96 12.938 8.966.234 20.269-.101 28.751-10.542.32 6.15 22.264 12.12 31.147-.958-2.42 6.696 13.332 11.294 19.646 6.229 6.546 8.387 35.208 12.553 68.523 12.938 12.219 6.31 45.1 13.477 57.502-9.104 4.795 1.436 21.02-2.743 13.417-11.021 19.807 3.212 12.064-5.276 14.375-10.063-.032 5.18 10.34 6.442 13.896.958-1.114 2.856 5.747 17.826 20.605 6.708 19.03 9.355 22.126 1.838 20.605-5.27 0 0 12.09-3.685 13.177-8.865 3.71-17.672-28.99-45.762-28.99-45.762l-55.106-26.834-67.085-2.396-195.51 2.875z" transform="translate(-100.58 -275.2)"/><path style="color:#000;fill:url(#dg)" d="M183.05 348.21c-12.12 10.089-6.23 35.699-5.75 39.532.479 3.833 10.063 16.771 10.063 16.771s9.104 6.23 12.459 5.75c3.354-.479 9.104-4.312 9.104-4.312s-8.87-7.98-10.542-13.417c-2.022-6.582 1.438-20.605 1.438-20.605s-.836 12.46 1.916 17.73c2.254 4.315 5.328 6.88 11.021 9.583 7.34 3.486 11.055-4.175 11.021-4.312-5.66-6.374-4.13-19.698.959-22.042-.037-9.457 7.36-14.036 18.185-15.59-1.93 6.276.293 8.447 3.857 9.84-7.078 6.582-4.4 11.074-2.875 15.813-7.37 12.959 4.589 27.675 12.27 24.438 4.6 4.906 18.23 2.758 16.481-3.355-1.237-4.32 1.77-11.459 6.8-13.616-1.384-1.615 10.457-2.11 16.2.199 3.145 1.264 15.814-1.438 18.21-4.313 2.396-2.875-4.084-5.613-10.542-7.667-5.543-1.762-8.507-6.771-5.063-10.525-4.876-4.004-2.83-9.154-1.33-10.898 3.534-4.113 13.665-2.96 13.58-2.536 0 0 .29 3.156 3.645 6.51 6.274 5.132 9.574.209 12.647-4.593 9.55 2.356 24.658-2.983 26.834 9.584-9.344 4.791-.958 13.417 5.271 14.855 6.23 1.437 13.417-10.542 13.417-10.542l3.354-7.188s.978 4.735 5.271 6.23c5.528 1.923 15.36-5.932 13.417-6.71 6.07-2.823 12.14-4.324 18.21-1.437 0 0 3.354 2.875 5.27 3.354 1.917.48 9.105-7.666 9.105-7.666l11.5 4.791c14.909-8.273 15.52-6.222 19.646-6.708 0 0 10.542 6.708 15.813 2.875s3.826-7.573 7.105-10.029c3.45-2.584 9.806-8.882 12.226-4.206 1.708 3.299 3.681 6.2 8.94 4.172 0 0 11.021-6.23 15.334-4.792 4.313 1.438 23.001 11.021 24.438 13.417 1.438 2.396 9.584 12.938 9.584 12.938s25.397 5.75 29.23 7.667c3.833 1.917 21.084 10.063 21.084 10.063s2.875-17.73-6.23-24.438c-9.104-6.708-43.605-12.938-43.605-12.938s-23.48-14.375-29.709-15.334c-6.229-.958-13.896.48-13.896.48s-11.264-7.44-17.73-8.147c-12.02-1.314-35.459 7.667-35.459 7.667s-10.03-4.882-16.77-5.27c-6.741-.39-18.689 5.75-22.522 4.312-3.833-1.438-42.168-14.855-54.147-12.938-11.98 1.916-51.75-14.855-57.022-14.855s-22.98.028-34.26 1.916c-13.017 2.179-26.457 4.562-38.096 10.782-8.144 4.353-16.77 15.573-21.084 17.97-4.312 2.395-15.162.827-28.272 11.74z" transform="translate(-100.58 -275.2)"/><g transform="translate(-100.58 -275.2)"><path id="dh" style="color:#000;fill:#784421" d="M282.39 420.34h1.752v23.817h-1.752z"/><path id="di" style="color:#000;fill:#fea" d="m282.45 420.8-10.063-2.396s.826-3.031-.839-3.234c-3.265-.399-8.356 1.644-12.339 4.672-4.675 3.554-17.25 3.593-17.25 3.593s11.482 1.306 17.25 1.438c3.196.073 8.985-2.755 9.584-.36 0 0-.719 1.079-.48 2.037.24.958 14.376 3.354 14.376 3.354z"/><path id="dj" style="color:#000;fill:#3771c8" d="M256.36 423.15c8.979-4.405 8.81-6.777 15.586-6.438 1.355 0 .17 3.05.17 3.05l9.487 2.372.339 6.268c-4.208-.952-8.923-.687-13.13-3.642 0 0 1.948-2.457-.424-2.457s-6.438.17-12.029.847z"/><use id="dm" xlink:href="#dh" transform="translate(69.96 -104.94)" height="1052.362" width="744.094" y="0" x="0"/><use id="dk" xlink:href="#di" transform="translate(69.96 -104.94)" height="1052.362" width="744.094" y="0" x="0"/><use id="dl" xlink:href="#dj" transform="translate(69.96 -104.94)" height="1052.362" width="744.094" y="0" x="0"/><use id="dn" xlink:href="#dk" height="1052.362" width="744.094" y="0" x="0"/><use id="do" xlink:href="#dl" height="1052.362" width="744.094" y="0" x="0"/><use xlink:href="#dm" transform="translate(48.637 -34.98)" height="1052.362" width="744.094"/><use xlink:href="#dk" transform="translate(48.637 -34.98)" height="1052.362" width="744.094"/><use xlink:href="#dl" transform="translate(48.637 -34.98)" height="1052.362" width="744.094"/><use xlink:href="#dn" transform="translate(48.637 -34.98)" height="1052.362" width="744.094"/><use xlink:href="#do" transform="translate(48.637 -34.98)" height="1052.362" width="744.094"/><use xlink:href="#dm" transform="translate(100.39 43.605)" height="1052.362" width="744.094"/><use xlink:href="#dk" transform="translate(100.39 43.605)" height="1052.362" width="744.094"/><use xlink:href="#dl" transform="translate(100.39 43.605)" height="1052.362" width="744.094"/><use xlink:href="#dn" transform="translate(100.39 43.605)" height="1052.362" width="744.094"/><use xlink:href="#do" transform="translate(100.39 43.605)" height="1052.362" width="744.094"/><path style="color:#000;fill:#000" d="M400.03 298.19a2.58 2.58 0 0 0-2.406 1.938l-9.094 34.469-7.688 16.188a2.58 2.58 0 0 0 3.094 3.562c-.372.113.587-.076 1.656-.156.378-.029 1.006-.036 1.47-.063v7.844c-.645.04-1.278.07-1.938.125a2.58 2.58 0 0 0-2.375 2.563v7.53a2.58 2.58 0 0 0 1.25 2.22l2.469 2.625v19.78l-16.22-.218a2.58 2.58 0 0 0 1.032-3.469l-9-16.938a2.58 2.58 0 0 0-.27-.41v-2.188a2.58 2.58 0 0 0 1.937-3.03l-7.44-35.53a2.58 2.58 0 0 0-2.78-2.03l-1.625.156a2.58 2.58 0 0 0-2.25 1.906l-9.187 35.375a2.58 2.58 0 0 0 2.344 3.25v2.094a2.58 2.58 0 0 0-.344.53l-8.094 17.282a2.58 2.58 0 0 0 2.313 3.687c1.494.024 2.938.021 4.406.032v73.719l-8.063 1.375a2.58 2.58 0 0 0-2.03 1.78l-2.313 7.563-13.406 1.375a2.58 2.58 0 0 0-2.188 1.813l-1.406 4.594-12.47-16.312-11.374-33.375a2.58 2.58 0 0 0-2.313-1.72l-4.78-.25a2.58 2.58 0 0 0-2.532 1.626l-13.5 34.375-14.062 17.625a2.58 2.58 0 0 0 .437 3.625c.937.735 1.46.734 2.125.875.666.14 1.408.222 2.282.312.491.051 1.278.083 1.843.125a2.58 2.58 0 0 0-1.843 2.531l.468 18.22a2.58 2.58 0 0 0 .47 1.406l6.687 9.562-1.75 55.906-22.312 18.031-9.188 4.375-1.187.094a2.58 2.58 0 0 0-2.032 1.25l-4.34 7.19a2.58 2.58 0 0 0 .282 3l2.125 2.437-3.375 5.594a2.58 2.58 0 0 0-.188.406l-37.87 101.56a2.58 2.58 0 0 0 .063 1.97l10.188 22.687c-.241.706-.618 1.62-.97 3.688-.46 2.716-.755 6.176.97 9.28.509.917 1.166 1.386 1.875 1.782l.375.875a2.58 2.58 0 0 0 4.187.813c5.538 1.497 13.81 2.49 22.375 3.25 9.792.868 19.478 1.343 24.22 1.343 5.75 0 17.38-1.925 28.25-3.875 9.827-1.763 17.29-3.282 19.75-3.78.502 1.296.943 2.5 1.968 4.562 1.487 2.992 3.267 6.211 5.937 8.28 6.005 4.655 13.877 5.499 20.656 5.72 5.48.178 12.718-1.368 18.781-2.875 5.767-1.434 9.902-2.734 10.344-2.875l29.938 2.906.22.031v-.031c3.607.59 6.952-.887 8.78-3.531 1.45-2.098 2.096-4.77 2.47-7.657 5.379.237 11.08.262 15.5-.812 4.516-1.098 9.327-4.486 11.218-5.813 2.323.302 4.462.53 6.5.72a2.58 2.58 0 0 0 1.25 1.124s2.388 1.003 5.156 1.781c1.385.39 2.872.762 4.344.875 1.473.114 3.074.147 4.625-1.093 1.744-1.396 1.717-3.06 1.781-4.563.065-1.503-.073-3.102-.187-4.656-.114-1.554-.197-3.055-.156-4.156.033-.891.137-1.076.062-1.063.114-.049.213-.086.375-.156 3.51-.85 13.64-2.73 18.688-3.656 4.699 2.462 9.418 4.7 13.656 6.187 4.492 1.576 8.384 2.563 11.875 1.5 7.225-2.199 12.672-8.165 16.25-12.875 2.663-.34 5.571.25 8.344 1.063 1.503.44 2.942.909 4.406 1.156 1.464.247 3.165.37 4.75-.688 1.543-1.028 2.301-2.364 3.313-4s2.018-3.54 2.937-5.375c1.83-3.67 3.31-7.06 3.31-7.06a2.58 2.58 0 0 0 .063-1.843l-24.781-74.812c.023-.472.465-9.578.937-19.562.242-5.12.506-10.341.688-14.5s.312-7.1.312-8.188c0-1.28-.327-1.964-.719-3.187s-.922-2.73-1.562-4.407c-1.28-3.354-2.97-7.436-4.656-11.438-3.164-7.506-5.965-13.773-6.344-14.625l9.781-30.28a2.58 2.58 0 0 0 .063-1.344s-.87-3.622-2.594-7.188c-.124-2.072-.25-3.937-.25-3.937a2.58 2.58 0 0 0-2.844-2.375l1-27.5 9.156-9.782a2.58 2.58 0 0 0 .719-1.75V467.88a2.58 2.58 0 0 0-2.313-2.562c-1.41-.149-2.728-.256-4-.375a2.58 2.58 0 0 0-.86.06l-2.69.62a2.58 2.58 0 0 0-.625.25 2.58 2.58 0 0 0-2.156-1.469c-3.84-.273-7.271-.465-10.375-.531a2.58 2.58 0 0 0-1.437.406l-1.4.88a2.58 2.58 0 0 0-1.188 2.375l.219 2.938h-.875l-.062-4.032a2.58 2.58 0 0 0-2.657-2.53c-2.113.054-3.939.218-5.78.343l-5.5-13.406a2.58 2.58 0 0 0-1.563-1.469l-3.25-1.062a2.58 2.58 0 0 0-.657-.157v-22.594l1.063-1.218a2.58 2.58 0 0 0 1.125-2.125v-5.032a2.58 2.58 0 0 0 1.562-3.062l-9.906-35.531a2.58 2.58 0 0 0-2.687-1.875l-2.157.156a2.58 2.58 0 0 0-2.25 1.719l-12.28 35.375a2.58 2.58 0 0 0 1.5 3.25v5a2.58 2.58 0 0 0 1.28 2.219l1.282 1.25v1.875l-1.75-.58a2.58 2.58 0 0 0-1.313-.063l-2.78.594a2.58 2.58 0 0 0-1.688 1.219l-19.16-6.69V376.89l2.125-2.625a2.58 2.58 0 0 0 1.093-2.094v-7.531a2.58 2.58 0 0 0-2.343-2.563c-.379-.037-.726-.062-1.094-.093v-7.75c1.525.18 3.612.374 3.875.468a2.58 2.58 0 0 0 3.156-3.625l-8.812-17.125-7.625-33.53a2.58 2.58 0 0 0-2.344-2l-3.219-.22a2.58 2.58 0 0 0-.281-.03zM376.22 422c3.645-.029 6.95 1.327 10.25 3.438v21.219l-1.469 4.25-4.75-.813-.531-1.281a2.58 2.58 0 0 0-1.563-1.438l-3.25-1.062a2.58 2.58 0 0 0-1.343-.094l-2.782.594a2.58 2.58 0 0 0-1.875 1.625l-4.03 10.656v-33.25c4.31-2.7 8.044-3.818 11.343-3.844zm-65.875 72.594-2.75 9v-5.875a2.58 2.58 0 0 0-1.625-2.406c1.745-.192 3.194-.435 4.375-.719z"/><path d="m387.65 507.04 19.088-51.698 2.784-.597 20.058 51.218-4.35.68-17.3-44.739-15.907 45.931z" style="color:#000;fill:#e9c6af"/><path d="m409.52 454.75 3.274 1.066 20.668 50.475-3.884-.323z" style="color:#000;fill:#784421"/><path style="color:#000;fill:#e3dedb" d="m354.86 501.28 17.716-47.523 21.371 45.273v26.995h-40.211z"/><path style="color:#000;fill:#c8beb7" d="M357.13 402.82h38.627l1.016 27.784c-10.98-11.087-23.008-18.341-42.015 0z"/><path style="color:#000;fill:url(#dp)" d="M345.6 366.57h13.793v17.619H345.6z"/><path style="color:#000;fill:url(#dq)" d="M343.88 391.8h18.408v98.601H343.88z"/><rect style="color:#000;fill:url(#dr)" ry="0" height="99.341" width="23.85" y="374.77" x="389.07"/><path d="m385.33 372.03 3.739 3.987c8.196-.568 16.809-.348 23.85 0l3.208-3.987c-9.68-2.052-19.842-2.414-30.797 0z" style="color:#000;fill:url(#ds)"/><path style="color:#000;fill:#501616" d="m376.52 452.07 32.197 5.483 17.856 42.461-30.369-.562z"/><path style="color:#000;fill:url(#dt)" d="M389.66 349.63h23.041v18.805H389.66z"/><path style="color:#000;fill:#784421" d="m375.53 457.69-13.45 35.7-3.338.423 13.751-37.905z"/><path style="color:#000;fill:url(#du)" d="M444.81 422.64h16.292v42.18H444.81z"/><path style="color:#000;fill:url(#dv)" d="M442.25 413.69h21.038v8.544H442.25z"/><path style="color:#000;fill:url(#dw)" d="m442.25 422.08 2.554 2.553c5.142.29 10.512.35 16.292 0l2.192-2.553z"/><path style="color:#000;fill:url(#dx)" d="m481.22 502.87.94-17.034 26.09 6.438-9.826 10.504"/><path style="color:#000;fill:url(#dy)" d="m498.42 502.78-1.355 36.933-17.958 1.355 2.109-38.195"/><path style="color:#000;fill:#c8beb7" d="m504.28 467.5-2.7.622-.12 8.026 4.553.36zM487.78 466.47l-1.414.875.54 6.828 2.994.36z"/><path style="color:#000;fill:url(#dz)" d="m487.78 466.47.469 6.5-7.625.156-.125-6.625c-7.124.185-12.503.84-18.344 1.375v24.406c12.73-.3 6.579-1.985 46.094 0v-24.406c-1.378-.145-2.682-.255-3.97-.375l-.28 6.81-6.093-.343.125-7c-3.806-.271-7.198-.436-10.25-.5z"/><path style="color:#000;fill:#917c6f" d="M417.61 458.06h5.63v7.068h-5.63z"/><path style="color:#000;fill:#e9c6af" d="m356.53 488.35 14.776-39 2.784-.597 20.058 51.218-4.35.68-17.3-44.739-13.75 37.905z"/><path style="color:#000;fill:url(#dA)" d="m229.05 609.12-4.313 7.188 3.355 3.833-4.313 7.188-37.855 101.59 10.542 23.48s-2.875 7.667-.48 11.98c2.397 4.312 40.252 6.708 50.794 6.708s50.314-8.146 50.314-8.146c55.97 12.665 121.88-9.581 143.75-11.5 0 0 13.896-6.23 18.209-6.708 25.879 6.402 34.996-4.354 44.564-3.355 7.188-1.437 14.375 3.834 17.25 1.917s8.625-15.334 8.625-15.334l-24.917-75.23s1.917-39.294 1.917-42.648c0-3.354-13.417-33.543-13.417-33.543l10.063-31.147s-2.396-10.542-7.188-11.98c-4.792-1.437-14.855-4.313-14.855-4.313l-169.15 42.168-54.147 23.001-21.563 14.375z"/><path style="color:#000;fill:#f2f2f2" d="m267.86 582.29-27.313 22.042-11.98 5.75 9.104.48s19.167-7.565 24.438-5.649 19.646-3.935 19.646-3.935l-7.666 13.896 6.708 1.437 13.136-12.308s8.427 2.246 16.573.808c8.146-1.437 31.147-12.938 34.501-13.417 3.354-.479 20.6 2.828 24.917 2.396 14.375-1.437 17.25-9.104 17.25-9.104l-42.647-34.98-52.231 6.708z"/><path style="color:#000;fill:#6c5d53" d="m293.43 520.4 24.396-4.066-.678 24.057-26.768 2.71z"/><path style="color:#000;fill:#c8beb7" d="M310.37 515.99h26.768v45.742l-26.768 1.355z"/><path style="color:#000;fill:#6c5d53" d="m301.9 585.11 11.52-7.115v-42.693l-15.247 3.388z"/><path style="color:#000;fill:url(#dB)" d="m265.94 527.42-1.917 60.856c7.187 3.276 27.375 2.563 37.376 0l-2.875-61.335z"/><path style="color:#000;fill:#e3dedb" d="M258.28 498.91c15.303-2.53 30.781-3.118 46.72-1.198l-20.605 12.698z"/><path d="m417.78 481.77 19.088-51.698 2.784-.597 20.058 51.218-4.35.68-17.3-44.739-15.907 45.931z" style="color:#000;fill:#e9c6af"/><path style="color:#000;fill:#784421" d="m374.08 448.75 3.274 1.066 20.668 50.475-3.884-.323zM439.65 429.47l3.274 1.066 20.668 50.475-3.884-.323z"/><path style="color:#000;fill:#e3dedb" d="m390.27 459.41 9.873-36.936 18.267 35.832 1.546 36.556-29.827 1.385z"/><path style="color:#000;fill:#784421" d="m400.06 424.62-13.198 37.932h3.313l12.917-36.151z"/><path style="color:#000;fill:#e9c6af" d="m401.66 417.47-2.781.594-14.528 42.912 2.517 1.582 13.537-37.932 13.625 35.25 4.086-1.748z"/><path style="color:#000;fill:#501616" d="m404.08 420.79 35.853 12.513 14.201 35.431-30.369-.562z"/><path style="color:#000;fill:#784421" d="m401.66 417.47 16.456 40.658 3.563.562-16.737-40.158z"/><path style="color:#000;fill:#e9c6af" d="m441.65 503.04 19.088-51.698 2.784-.597 20.058 51.218-4.35.68-17.3-44.739-15.907 45.931z"/><path style="color:#000;fill:#784421" d="m463.52 450.75 3.274 1.066 20.668 50.475-3.884-.323z"/><path d="m408.86 497.28 17.716-47.523 21.371 45.273v26.995h-40.211z" style="color:#000;fill:#e3dedb"/><path style="color:#000;fill:#917c6f" d="m399.02 537.21 20.129-7.787v-29.428l-21.09.388z"/><path d="m430.52 448.07 32.197 5.483 17.856 42.461-30.369-.562zM383.52 466.26l22.909 2.513 15.068 32.459-21.045 2.924z" style="color:#000;fill:#501616"/><path d="m429.53 453.69-13.45 35.7-3.338.423 13.751-37.905zM414.03 459.88l4.085-1.748 3.563.562-3.895 1.65z" style="color:#000;fill:#784421"/><path d="m410.53 484.35 14.776-39 2.784-.597 20.058 51.218-4.35.68-17.3-44.739-13.75 37.905z" style="color:#000;fill:#e9c6af"/><path d="m428.08 444.75 3.274 1.066 20.668 50.475-3.884-.323z" style="color:#000;fill:#784421"/><path style="color:#000;fill:#a02c2c" d="m315.75 485.68 23.065-2.386-10.737 34.2-22.27.795z"/><path style="color:#000;fill:#e3dedb" d="M327.65 502.78h35.577v35.916H327.65z"/><path d="m333.65 474.94 27.869-4.806-10.737 34.2-26.676 1.625z" style="color:#000;fill:#c83737"/><path style="color:#000;fill:#784421" d="m367.25 463.06 2.19.641 1.59 3.28-2.53-.546z"/><path style="color:#000;fill:#e3dedb" d="m363.87 468.31 17.997-.844 17.153 38.805v30.932h-51.178V503.46z"/><path style="color:#000;fill:#784421" d="m380.77 470.56-14.217 1.292-15.72 34.2-2.087-.087 16.719-35.062 13.125-1.125z"/><path style="color:#000;fill:#e9c6af" d="m378.69 462.25-1.594 3.344-8.594.844-1.25-3.375h-3.093l-21.75 43.28 6.343-.374 16.72-35.062 13.124-1.125 15.906 36.977 6.344-.415-19.062-44.094z"/><path style="color:#000;fill:#784421" d="m381.78 462.25 2.969.438 18.981 43.094-2.887.562z"/><path style="color:#000;fill:url(#dC)" d="M262.35 490.04h38.814v15.094H262.35z"/><path style="color:#000;fill:url(#dD)" d="m280.8 440.45 4.792.24 11.5 33.782 13.417 17.49c-7.308 2.168-54.911 3.275-57.63 1.14l14.264-17.912z"/><path d="M274.48 494.01c-1.32-.001-2.146.862-2.146 2.056v7.071h4.27v-7.071c.104-1.12-.753-2.055-2.124-2.056z" style="color:#000;fill:#000"/><path style="color:#000;fill:url(#dE)" d="m258.28 498.91.48 18.209 7.187 10.302c8.248 2.9 24.1 1.522 32.584-.48L305 516.757v-19.044c-2.862 1.919-43.881 3.188-46.72 1.198z"/><path style="color:#000;fill:url(#dF)" d="M305.24 516.64c-18.974 2.68-37.147 2.362-46.49.49l7.188 10.28c8.248 2.9 24.11 1.533 32.594-.468z"/><path style="color:#000;fill:#917c6f" d="m337.16 526.94 3.878.405.677 7.116-4.242-1.021z"/><path style="color:#000;fill:url(#dG)" d="m354.34 526.22-9.969.406.719 6.813h-7.625l-.313-6.5-40.53 1.687-.25 15.812 33.061-1.687 1.907 42.656h22.28l.72-59.188z"/><use id="dI" xlink:href="#dH" transform="translate(4.678 -.17)" height="1052.362" width="744.094" y="0" x="0"/><use xlink:href="#dI" transform="translate(4.678 -.17)" height="1052.362" width="744.094"/><path style="color:#000;fill:#241f1c" d="m303.42 555.8 19.313.103v2.269l-19.652-.103z"/><path id="dH" style="color:#000;fill:#241f1c" d="M307.15 544.96v16.433l.847 2.71 1.017-2.54v-17.28z"/><path style="color:#000;fill:#917c6f" d="m300.71 589.8 4.41-2.147-.17-32.02c-.034-6.325 4.066-9.488 7.793-9.657 6.777-1.016-13.892-1.525-13.892-1.525z"/><path style="color:#000;fill:#e3dedb" d="m323.94 538.44-28.031.469-.98 50.802 5.782.093.23-31.708c.064-4.371 1.437-11.76 9.343-12 7.907-.24 10.031 7.91 10.062 12.47l.427 31.582 4.125.063z"/><path style="color:#000;fill:#917c6f" d="m334.43 585.11-2.033-63.7-3.219-.17-5.237 17.195.958 51.77z"/><path style="color:#000;fill:#c83737" d="m295.91 538.91 28.031-.469 5.237-17.194-25.243 1.525z"/><path style="color:#000;fill:#e3dedb" d="M347.13 497.95c13.892-.72 31.808-.847 36.636-.339l-.127 2.075-35.923-.78z"/><path style="color:#000;fill:url(#dJ)" d="m374.16 494.81-.031 3.594a233.528 233.528 0 0 0-4.25-.094l.031-3.5c-1.377.008-2.698.012-4.094.031l-.031 3.438c-1.165.002-2.332.013-3.5.031l.031-3.438c-1.27.027-2.586-.005-3.812.032l.03 3.5c-1.269.037-2.539.07-3.812.125l.032-3.594c-1.413.056-2.82.086-4.063.156l-.08 3.66c-.97.054-1.934.093-2.906.156l.094-3.656c-2.565.194-4.452.08-5.188.344l1.969 12.688 43.906.125.86-13.4c-.181-.332-2.984-.076-7.125-.2v4.044c-1.457-.103-2.912-.209-4.375-.282v-3.75c-1.226-.016-2.36.004-3.688 0z"/><path style="color:#000;fill:#e3dedb" d="m483.12 491.5-2.323.266-.233 4.244-8.238.753-1.737-5.42-2.16.253.34 4.744-7.878.593-1.333-5.746-2.14.155v5.59l-7.224-1.484L447.59 491l-2.37.257.178 4.797-6.446.963-2.55-4.923-3.464.095.508 6.523-3.303 2.287 1.072-5.124-4.376-.213-5.352 5.57.693 7.306-2.965 2.371 1.53-4.784-4.918-.722-3.897 3.897 1.017 7.37-3.304 2.795 1.322-3.34-5.472-1.15-4.151 2.711.508 6.438-2.456 1.101 1.352-2.663-5.164-1.403-4.574 1.779.508 6.353-3.05 1.525 1.405-4.285-3.607-1.306-5.93 1.948.932 13.3 102.75-14.825 1.101-32.02zM346.99 499.99c11.81 2.586 32.309 2.015 37.885.39l1.472.56c-15.06 3.85-28.78 3.45-41.35-.6z"/><path style="color:#000;fill:#ac9d93" d="M440.16 490.91c-1.094-.015-2.359.425-3.75 1.188l.531 6.968-5.437 3.375-.281-6.562c-1.736 1.488-3.55 3.207-5.407 5.062l.438 7.782-5.25 3.53-.25-6.124c-1.603 1.682-3.203 3.362-4.75 4.968l.25 6.594-5.063 3.22-.218-4.782c-1.83 1.73-3.53 3.214-5 4.187l.28 5.844-5.25 2.219-.25-5.813-5.655 2.063.312 6.437-5.25 2.22-.281-6.75-11.062 4.03 2.375 55.562s27.793-13.534 32.875-15.906c5.082-2.371 12.182-14.569 18.28-19.312 6.1-4.743 20.345-6.437 20.345-6.437l34.906-9.844 2.031-43.03-6.5-.095.219 3.5h-5.75l-.063-3.562-6.937-.094.219 3.313h-5.782l-.062-3.406-5.406-.063.218 3.469h-5.75l-.062-3.563-6.375-.093.187 3.812-5.593.5-.094-4.375-1.938-.031z"/><path style="color:#000;fill:url(#dK)" d="m350.3 524.7-1.694 62.862c-.432 6.352 38.34 5.678 37.839-2.851l-3.561-60.49z"/><path style="color:#000;fill:#c8beb7" d="m350.12 494.53-.112 3.291.612.928.062-3.657z"/><path style="color:#000;fill:url(#dL)" d="M389.34 495c-.379.254-1.462.48-3 .688v5.25l-3.469.718v-5.625c-1.805.15-3.866.268-6.125.375l.12 5.865-3.589.229v-5.937a350.63 350.63 0 0 1-6.843.187v5.5h-3.47v-5.5c-2.343.014-4.646.034-6.812 0l-.12 5.38-3.723-.349.218-5.125a131.817 131.817 0 0 1-3.937-.187v4.719l-3.594-.844.063-4.156c-1.221-.161-2.111-.365-2.438-.594l.469 18.812 7.219 10.28c8.248 2.9 24.079 1.533 32.562-.468l6.25-11.03z"/><path d="M389.11 513.2c-15.038 5.32-36.137 3.235-46.01 1.208l7.188 10.281c8.248 2.9 24.11 1.533 32.594-.468z" style="color:#000;fill:url(#dM)"/><path d="M408.15 356.25c-1.16-.001-1.888.862-1.888 2.056v7.071h3.756v-7.071c.092-1.12-.662-2.055-1.868-2.056z" style="color:#000;fill:#000"/><path style="color:#000;fill:url(#dN)" d="M385.33 364.67c9.476-.79 19.417-1.115 30.797 0v7.532c-9.59-.284-21.233-.468-30.797 0z"/><path style="color:#000;fill:url(#dO)" d="m345 377.41-8.096 17.28c11.273.176 22.087.123 32.084-.339l-8.99-16.94z"/><path style="color:#000;fill:#782121" d="m362.38 399.1 26.598.339 1.525 5.082h-29.817z"/><path style="color:#000;fill:url(#dP)" d="m500.26 533.89-15.334 5.75s13.896 2.396 13.896 4.792-4.792 4.792-4.792 4.792-8.625-4.792-18.209-1.438c-9.583 3.355-14.375 6.709-14.375 6.709s-1.437-5.271-11.02-.959c-9.584 4.313-23.002 11.5-22.522 14.855.48 3.355 23.96 8.626 23.96 8.626l-14.856 153.34s39.772 27.313 50.793 23.959c11.021-3.355 19.167-18.21 19.167-18.21s-6.708-115.48-6.708-119.8c0-4.312-12.46-35.937-11.5-39.292.958-3.355 11.5-25.397 11.98-27.313.479-1.917-.48-15.813-.48-15.813z"/><path style="color:#000;fill:url(#dQ)" d="M383.34 680.52s0-61.814 2.875-65.168c2.875-3.354 8.865-35.699 15.573-37.136 6.709-1.438 19.167-17.25 21.084-12.459 0 0 3.949 14.384 9.172 25.24 3.666 7.618 9.528 15.755 10.714 18.126 2.875 5.75 9.584 73.315 11.5 81.94 1.917 8.625 9.584 55.106 9.584 55.106s-22.521 1.438-24.438 3.833c-1.917 2.396 3.354 12.46-6.709 12.46s-38.334-5.272-38.334-5.272z"/><path style="color:#000;fill:url(#dR)" d="m363.7 681.48 13.417-21.084 14.855 11.021 13.896 50.314 14.603 39.218s-7.415 5.255-11.728 6.304c-9.624 2.34-29.709-.479-29.709-.479z"/><path style="color:#000;fill:url(#dS)" d="M296.13 762.46s9.584-30.188 13.417-36.418 13.896-34.022 15.334-40.73c1.438-6.708 8.146-41.689 9.104-44.085.959-2.396 13.896 1.438 13.896 1.438l12.46 9.104 7.666 26.834 14.375 31.626 9.105 50.314c.958 11.02-.959 20.126-8.626 18.688l-30.656-3.012s-18.996 6.103-28.775 5.784c-6.61-.215-13.928-1.116-19.155-5.168-4.353-3.374-8.146-14.375-8.146-14.375z"/><path style="color:#000;fill:url(#dT)" d="M424.79 599.78c1.452-2.995-5.031-4.073-7.427-2.635s-5.75 12.938-7.188 15.334c-1.438 2.395-1.438 40.25.48 46 1.916 5.75 8.624 60.377 11.98 65.648 3.353 5.271 6.708 39.293 6.708 39.293s9.104 3.834 11.5 1.917c2.396-1.917-1.438-13.896 1.916-14.855 3.355-.958 24.438-4.792 24.438-4.792s-18.209-115-19.167-119.32c-.958-4.312-8.625-13.417-10.542-11.02-1.916 2.395-15.334 15.333-16.292 18.208-.958 2.876-5.75-2.875-5.75-5.75s6.956-23.106 9.344-28.032z"/><path style="color:#000;fill:#f1f0ef" d="M241.99 630.68s-6.23 18.688-8.146 23.001c-1.917 4.313-13.417 11.98-13.417 11.98l-21.084 78.586-3.833 16.292 2.875 6.708 24.438-99.19c12.739-3.348 16.032.05 20.126 2.876 0 0 6.229-3.834 5.75-6.709-.48-2.875-8.146-5.75-8.146-5.75l6.229-27.313 9.584-6.709z"/><path d="m343.15 371.1 9.195-35.37 1.617-.17 7.446 35.54c-7.43-.448-12.653-.16-18.258 0z" style="color:#000;fill:url(#dU)"/><path d="m400.13 300.77 3.209.24 7.701 33.782 8.985 17.49c-4.966-1.792-34.371-1.163-36.828-.418l7.787-16.354z" style="color:#000;fill:url(#dV)"/><path style="color:#000;fill:url(#dW)" d="m440.61 414.81 12.255-35.37 2.155-.17 9.924 35.54c-7.368-.557-15.696-.394-24.334 0z"/><path style="color:#000;fill:#c8beb7" d="m436.41 492.09-3.469.094.5 6.53 3.5.345-.531-6.97zm-10.594 8.844-4.312.281.687 7.313 4.063.187-.438-7.781zm-13.875 8.375 1 7.344 3.313 1.03-.25-6.593-4.063-1.781zm-10.594 8.375.5 6.437 4.406 2.032-.281-5.844-4.625-2.625zm-10.344 5.25.531 6.344 3.875 1.78-.312-6.437-4.11-1.67z"/><path style="color:#000;fill:#000" d="M375.21 406.32c-.939-.001-1.526.613-1.526 1.462v5.03h3.036v-5.03c.075-.796-.535-1.461-1.51-1.462zM367.3 407.28c-.939-.001-1.526.613-1.526 1.462v5.03h3.037v-5.03c.074-.796-.536-1.461-1.511-1.462zM382.88 407.04c-.939-.001-1.526.613-1.526 1.462v5.03h3.037v-5.03c.074-.796-.536-1.461-1.511-1.462zM402.28 442.74c-.939.147-1.526.853-1.526 1.703v5.03l3.036-.48v-5.029c.075-.807-.535-1.377-1.51-1.224zM367.78 479.03c-.939.073-1.526.733-1.526 1.582v5.03l3.036-.24v-5.029c.075-.802-.535-1.419-1.51-1.343zM375.33 478.32c-.939.073-1.526.733-1.526 1.582v5.03l3.037-.24v-5.029c.074-.802-.536-1.419-1.511-1.343zM429 471.61c-.939.073-1.526.733-1.526 1.582v5.03l3.037-.24v-5.029c.074-.802-.536-1.419-1.511-1.343zM402.04 383.56c-.939-.001-1.526.613-1.526 1.462v5.03h3.037v-5.03c.074-.796-.536-1.461-1.511-1.462zM347.18 406.56c-.939.073-1.526.733-1.526 1.582v5.03l3.037-.24v-5.029c.074-.802-.536-1.419-1.511-1.343z"/><path style="color:#000;fill:#917c6f" d="m345.06 496.19 1.924-.093v3.893l-1.986.356zM352.53 496.66l1.469-.625-.216 5.004-1.472.746z"/><path style="color:#000;fill:#c8beb7" d="m386.34 495.69-1.442.017-.03 4.672 1.472.561zM376.75 496.41l-.654-.132.15 5.27.624.727z"/><path style="color:#000;fill:#e3dedb" d="m374.12 494.22.031.594c1.23-.004 2.459-.001 3.688 0l-.063-.594c-.872-.001-1.652-.002-2.594 0h-1.062zm7.469 0-.063.625c2.16.02 5.22-.027 5.5.313-.906.096-1.217.48-2.125.562l1.281.156c1.944-.26 3.157-.554 3.157-.875 0-.526-3.026-.726-7.75-.781zm-15.812.031.031.594h.281c1.272-.003 2.542-.025 3.813-.031l.062-.563c-1.31.006-2.5 0-3.875 0h-.312zm-3.625.031c-1.233.008-2.497.016-3.656.032v.593c1.279-.009 2.545-.026 3.812-.03l-.156-.595zm-8.094.094c-1.418.038-2.734.1-3.938.156l.563.563c1.345-.068 2.692-.127 4.063-.156l-.688-.563zm-7.531.375c-2.451.206-3.906.482-3.906.844 0 .285.967.488 2.53.656l2.282-.5c-.956-.05-1.92-.1-2.875-.156a70.033 70.033 0 0 1 3.25-.344l-1.281-.5zm34.906 1c-.997.075-3.408.44-5.344.531l.594.313c2.315-.092 4.407-.42 6.187-.563l-1.45-.27zm-31.45.14-1.406.594v.031c1.184.058 2.48.12 3.937.156h.031l1.438-.625c-1.334-.048-2.669-.093-4-.156zm6.437.25-.281.625c2.078.03 4.458-.007 6.813 0l.03-.54a297.8 297.8 0 0 1-6.563-.094zm16.531 0c-2.198.075-4.393.112-6.594.125l.063.5c2.337.05 4.77-.012 6.813-.062.094-.22-.19-.38-.282-.563z"/></g></svg></svg>